<?xml version="1.0" standalone="no"?><!DOCTYPE svg PUBLIC "-//W3C//DTD SVG 1.1//EN" "http://www.w3.org/Graphics/SVG/1.1/DTD/svg11.dtd"><svg t="1548326838215" class="icon" style="" viewBox="0 0 1024 1024" version="1.1" xmlns="http://www.w3.org/2000/svg" p-id="1393" xmlns:xlink="http://www.w3.org/1999/xlink" width="16" height="16"><defs><style type="text/css"></style></defs><path d="M471.51331555 181.09271609c-23.77937351-23.77937351-23.77937351-62.35531947 0-86.13469298 23.77937351-23.79102435 62.34366862-23.79102435 86.13469298 0l373.99210667 373.98045582c11.88386133 11.89551218 17.825792 27.4726912 17.825792 43.06152107s-5.95358151 31.17765973-17.825792 43.06152107l-373.99210667 373.98045582c-23.79102435 23.79102435-62.35531947 23.79102435-86.13469298 0-23.77937351-23.77937351-23.77937351-62.34366861 0-86.13469298L802.42059947 512 471.51331555 181.09271609zM423.2904704 512l-330.90728391 330.90728391c-23.77937351 23.79102435-23.77937351 62.35531947 0 86.13469298 23.77937351 23.79102435 62.34366862 23.79102435 86.13469298 0l373.99210666-373.98045582c11.88386133-11.89551218 17.825792-27.4726912 17.825792-43.06152107s-5.95358151-31.17765973-17.825792-43.06152107l-373.99210666-373.98045582c-23.79102435-23.79102435-62.35531947-23.79102435-86.13469298 0-23.77937351 23.77937351-23.77937351 62.35531947 0 86.13469298L423.2904704 512z" p-id="1394" fill="#707070"></path></svg>